<svg width="25" height="25" viewBox="0 0 25 25" fill="none" xmlns="http://www.w3.org/2000/svg">
<path d="M19.0396 4.03857H5.01044C4.21313 4.03857 3.44848 4.3577 2.88469 4.92575C2.32091 5.4938 2.00418 6.26424 2.00418 7.06758V17.1643C2.00418 17.9676 2.32091 18.7381 2.88469 19.3061C3.44848 19.8741 4.21313 20.1933 5.01044 20.1933H19.0396C19.8369 20.1933 20.6016 19.8741 21.1654 19.3061C21.7292 18.7381 22.0459 17.9676 22.0459 17.1643V7.06758C22.0459 6.26424 21.7292 5.4938 21.1654 4.92575C20.6016 4.3577 19.8369 4.03857 19.0396 4.03857V4.03857ZM19.0396 6.05791L12.5261 10.5711C12.3737 10.6597 12.2009 10.7064 12.025 10.7064C11.8491 10.7064 11.6763 10.6597 11.524 10.5711L5.01044 6.05791H19.0396Z" fill="#EAEFF7"/>
</svg>
