<svg width="24" height="24" viewBox="0 0 24 24" fill="none" xmlns="http://www.w3.org/2000/svg">
<path d="M19 3.97192H5C4.20435 3.97192 3.44129 4.28106 2.87868 4.83132C2.31607 5.38159 2 6.1279 2 6.9061V16.6867C2 17.4649 2.31607 18.2112 2.87868 18.7614C3.44129 19.3117 4.20435 19.6208 5 19.6208H19C19.7956 19.6208 20.5587 19.3117 21.1213 18.7614C21.6839 18.2112 22 17.4649 22 16.6867V6.9061C22 6.1279 21.6839 5.38159 21.1213 4.83132C20.5587 4.28106 19.7956 3.97192 19 3.97192ZM19 5.92804L12.5 10.3C12.348 10.3858 12.1755 10.431 12 10.431C11.8245 10.431 11.652 10.3858 11.5 10.3L5 5.92804H19Z" fill="#166BFF"/>
</svg>
