<svg width="30" height="30" viewBox="0 0 30 30" fill="none" xmlns="http://www.w3.org/2000/svg">
<g clip-path="url(#clip0)">
<path fill-rule="evenodd" clip-rule="evenodd" d="M15 29.8589C15 29.8589 26.25 19.4316 26.25 11.5204C26.25 8.60214 25.0647 5.80345 22.955 3.73996C20.8452 1.67647 17.9837 0.517212 15 0.517212C12.0163 0.517212 9.15483 1.67647 7.04505 3.73996C4.93526 5.80345 3.75 8.60214 3.75 11.5204C3.75 19.4316 15 29.8589 15 29.8589ZM15 17.0219C16.4918 17.0219 17.9226 16.4423 18.9775 15.4106C20.0324 14.3788 20.625 12.9795 20.625 11.5204C20.625 10.0612 20.0324 8.6619 18.9775 7.63016C17.9226 6.59841 16.4918 6.01878 15 6.01878C13.5082 6.01878 12.0774 6.59841 11.0225 7.63016C9.96763 8.6619 9.375 10.0612 9.375 11.5204C9.375 12.9795 9.96763 14.3788 11.0225 15.4106C12.0774 16.4423 13.5082 17.0219 15 17.0219Z" fill="#325FFF"/>
</g>
<defs>
<clipPath id="clip0">
<rect width="30" height="29.3417" fill="white" transform="translate(0 0.517212)"/>
</clipPath>
</defs>
</svg>
