<svg width="30" height="30" viewBox="0 0 30 30" fill="none" xmlns="http://www.w3.org/2000/svg">
<ellipse cx="15" cy="14.8183" rx="15" ry="14.6709" fill="#166BFF"/>
<path d="M19.9356 8.95001H10.8144C9.78461 8.95001 9 9.71741 9 10.7246V19.6456C9 20.6528 9.78461 21.4202 10.8144 21.4202H19.9356C20.9654 21.4202 21.75 20.6528 21.75 19.6456V10.7246C21.75 9.71741 20.9654 8.95001 19.9356 8.95001ZM15.375 18.9262C17.4837 18.9262 19.2 17.2955 19.2 15.329C19.2 14.9933 19.151 14.6096 19.0529 14.3218H20.1317V19.4058C20.1317 19.6456 19.9356 19.8854 19.6413 19.8854H11.1087C10.8635 19.8854 10.6183 19.6936 10.6183 19.4058V14.2738H11.7462C11.6481 14.6096 11.599 14.9453 11.599 15.2811C11.55 17.2955 13.2663 18.9262 15.375 18.9262ZM15.375 17.4873C14.0019 17.4873 12.9231 16.4322 12.9231 15.1372C12.9231 13.8422 14.0019 12.787 15.375 12.787C16.7481 12.787 17.8269 13.8422 17.8269 15.1372C17.8269 16.4801 16.7481 17.4873 15.375 17.4873ZM20.0827 12.3553C20.0827 12.6431 19.8375 12.8829 19.5433 12.8829H18.1702C17.876 12.8829 17.6308 12.6431 17.6308 12.3553V11.0604C17.6308 10.7726 17.876 10.5328 18.1702 10.5328H19.5433C19.8375 10.5328 20.0827 10.7726 20.0827 11.0604V12.3553Z" fill="white"/>
</svg>
