<svg width="31" height="31" viewBox="0 0 31 31" fill="none" xmlns="http://www.w3.org/2000/svg">
<ellipse cx="15.1147" cy="15.145" rx="15.0313" ry="15.145" fill="white"/>
<path d="M20.0606 9.08691H10.9204C9.88848 9.08691 9.10223 9.87912 9.10223 10.9189V20.1282C9.10223 21.168 9.88848 21.9602 10.9204 21.9602H20.0606C21.0926 21.9602 21.8788 21.168 21.8788 20.1282V10.9189C21.8788 9.87912 21.0926 9.08691 20.0606 9.08691ZM15.4905 19.3855C17.6036 19.3855 19.3235 17.7021 19.3235 15.6721C19.3235 15.3255 19.2744 14.9294 19.1761 14.6323H20.2572V19.8807C20.2572 20.1282 20.0606 20.3758 19.7658 20.3758H11.2153C10.9696 20.3758 10.7239 20.1777 10.7239 19.8807V14.5828H11.8541C11.7558 14.9294 11.7067 15.276 11.7067 15.6226C11.6576 17.7021 13.3775 19.3855 15.4905 19.3855ZM15.4905 17.9002C14.1146 17.9002 13.0335 16.8109 13.0335 15.474C13.0335 14.1372 14.1146 13.0479 15.4905 13.0479C16.8665 13.0479 17.9476 14.1372 17.9476 15.474C17.9476 16.8604 16.8665 17.9002 15.4905 17.9002ZM20.208 12.6023C20.208 12.8994 19.9623 13.1469 19.6675 13.1469H18.2915C17.9967 13.1469 17.751 12.8994 17.751 12.6023V11.2655C17.751 10.9684 17.9967 10.7208 18.2915 10.7208H19.6675C19.9623 10.7208 20.208 10.9684 20.208 11.2655V12.6023Z" fill="#393939"/>
</svg>
