<svg width="56" height="50" viewBox="0 0 56 50" fill="none" xmlns="http://www.w3.org/2000/svg">
<path d="M12.4958 10.293H43.4794L41.3612 8.25536H14.321L12.4958 10.293ZM47.2425 10.7616C47.896 11.4544 48.279 12.3306 48.279 13.3494V38.8197C48.279 39.9005 47.8042 40.937 46.959 41.7013C46.1139 42.4655 44.9676 42.8949 43.7723 42.8949H12.2254C11.0301 42.8949 9.88383 42.4655 9.03866 41.7013C8.19349 40.937 7.71868 39.9005 7.71868 38.8197V13.3494C7.71868 12.3306 8.10175 11.4544 8.75522 10.7616L11.8648 7.33843C12.4958 6.64564 13.4197 6.21774 14.4787 6.21774H41.519C42.578 6.21774 43.5019 6.64564 44.1103 7.33843L47.2425 10.7616ZM14.4787 36.782H27.9988V30.6692H14.4787V36.782Z" fill="#325FFF"/>
</svg>
