<svg width="25" height="25" viewBox="0 0 25 25" fill="none" xmlns="http://www.w3.org/2000/svg">
<path d="M20.7862 17.3059L16.7127 13.5742C16.5202 13.3979 16.2671 13.3038 16.0071 13.3119C15.747 13.32 15.5002 13.4296 15.3188 13.6176L12.9208 16.1024C12.3436 15.9913 11.1832 15.6269 9.98873 14.4264C8.79425 13.2218 8.43249 12.0496 8.32527 11.4721L10.7894 9.05491C10.9762 8.87229 11.0851 8.62361 11.0932 8.36148C11.1012 8.09936 11.0077 7.84436 10.8325 7.65046L7.12978 3.54717C6.95446 3.35266 6.71079 3.23468 6.45052 3.21828C6.19025 3.20188 5.93389 3.28835 5.73588 3.45933L3.56136 5.33832C3.38811 5.51352 3.2847 5.74668 3.27075 5.9936C3.25572 6.24601 2.96912 12.2253 7.5707 16.8637C11.5851 20.9074 16.6135 21.2033 17.9984 21.2033C18.2008 21.2033 18.3251 21.1972 18.3581 21.1952C18.6032 21.1814 18.8345 21.0767 19.0075 20.9014L20.8714 18.7094C21.0417 18.5105 21.1282 18.2524 21.1123 17.9902C21.0964 17.728 20.9793 17.4824 20.7862 17.3059V17.3059Z" fill="#EAEFF7"/>
</svg>
