<svg width="31" height="31" viewBox="0 0 31 31" fill="none" xmlns="http://www.w3.org/2000/svg">
<ellipse cx="15.1981" cy="15.145" rx="15.0313" ry="15.145" fill="white"/>
<path d="M23.1647 11.283C22.6386 11.5102 22.0374 11.6616 21.4361 11.7374C22.0374 11.3587 22.5635 10.7529 22.7889 10.0714C22.1877 10.45 21.5864 10.6772 20.8349 10.8287C20.3088 10.2229 19.482 9.84424 18.6553 9.84424C17.0019 9.84424 15.6491 11.2073 15.6491 12.8732C15.6491 13.1004 15.6491 13.3276 15.7242 13.5548C13.2441 13.4033 10.9894 12.1917 9.48624 10.3743C9.26077 10.8287 9.11045 11.3587 9.11045 11.8888C9.11045 12.949 9.63655 13.8577 10.4633 14.3877C9.93718 14.3877 9.48624 14.2363 9.11045 14.0091C9.11045 15.4479 10.1626 16.7352 11.5155 16.9624C11.29 17.0381 10.9894 17.0381 10.6887 17.0381C10.4633 17.0381 10.313 17.0381 10.0875 16.9624C10.4633 18.174 11.5906 19.0827 12.9434 19.0827C11.8912 19.9157 10.6136 20.37 9.18562 20.37C8.96015 20.37 8.73468 20.37 8.43405 20.2943C9.78687 21.1273 11.3651 21.6574 13.0937 21.6574C18.6553 21.6574 21.6616 17.0381 21.6616 13.0247V12.6461C22.2628 12.4189 22.7889 11.8888 23.1647 11.283Z" fill="#393939"/>
</svg>
