<svg width="31" height="31" viewBox="0 0 31 31" fill="none" xmlns="http://www.w3.org/2000/svg">
<ellipse cx="15.365" cy="15.145" rx="15.0313" ry="15.145" fill="white"/>
<path d="M20.0652 7.98615C17.2006 7.43496 14.2258 7.43496 11.3612 7.98615C10.0942 8.26174 8.49661 9.80508 8.22117 11.0177C7.72537 13.3878 7.72537 15.8131 8.22117 18.1832C8.5517 19.3958 10.1493 20.9392 11.3612 21.2148C11.4163 21.2148 11.4714 21.2699 11.4714 21.325V24.7975C11.4714 24.9629 11.6917 25.0731 11.8019 24.9077L13.4546 23.1991C13.4546 23.1991 14.7767 21.8211 14.997 21.6006C14.997 21.6006 15.0521 21.5455 15.1072 21.5455C16.7599 21.6006 18.4676 21.4352 20.1203 21.1596C21.3873 20.884 22.9849 19.3407 23.2603 18.1281C23.7561 15.758 23.7561 13.3327 23.2603 10.9626C22.9298 9.80508 21.3322 8.26174 20.0652 7.98615ZM20.1203 18.3486C19.8448 18.8998 19.5143 19.3407 18.9634 19.6163C18.7982 19.6714 18.6329 19.7265 18.4676 19.7817C18.2473 19.7265 18.082 19.6714 17.9167 19.6163C16.1539 18.8998 14.5013 17.9076 13.1791 16.4745C12.463 15.6477 11.857 14.7107 11.3612 13.7185C11.1409 13.2225 10.9205 12.7815 10.7552 12.2854C10.59 11.8445 10.8654 11.4035 11.1409 11.0728C11.4163 10.7421 11.7468 10.5216 12.1324 10.3563C12.4079 10.1909 12.6833 10.3012 12.9037 10.5216C13.3444 11.0728 13.7851 11.624 14.1156 12.2303C14.336 12.6162 14.2809 13.0571 13.8953 13.3327C13.7851 13.3878 13.73 13.443 13.6198 13.5532C13.5647 13.6083 13.4546 13.6634 13.3995 13.7737C13.2893 13.939 13.2893 14.1044 13.3444 14.2697C13.7851 15.5375 14.6114 16.5296 15.8785 17.0808C16.0988 17.1911 16.2641 17.2462 16.5395 17.2462C16.9251 17.1911 17.0904 16.7501 17.3659 16.5296C17.6413 16.3091 17.9718 16.3091 18.3024 16.4745C18.5778 16.6399 18.8532 16.8603 19.1838 17.0808C19.4592 17.3013 19.7347 17.4667 20.0101 17.6871C20.1754 17.7974 20.2305 18.073 20.1203 18.3486ZM17.8066 14.2146C17.6964 14.2146 17.7515 14.2146 17.8066 14.2146C17.5862 14.2146 17.5311 14.1044 17.476 13.939C17.476 13.8288 17.476 13.6634 17.4209 13.5532C17.3659 13.3327 17.2557 13.1122 17.0353 12.9469C16.9251 12.8918 16.815 12.8366 16.7048 12.7815C16.5395 12.7264 16.4293 12.7264 16.2641 12.7264C16.0988 12.6713 16.0437 12.561 16.0437 12.3957C16.0437 12.2854 16.209 12.1752 16.3192 12.1752C17.2006 12.2303 17.8616 12.7264 17.9718 13.7737C17.9718 13.8288 17.9718 13.939 17.9718 13.9941C17.9718 14.1044 17.9167 14.2146 17.8066 14.2146ZM17.2557 11.7894C16.9802 11.6791 16.7048 11.5689 16.3743 11.5138C16.2641 11.5138 16.0988 11.4587 15.9886 11.4587C15.8234 11.4587 15.7132 11.3484 15.7683 11.1831C15.7683 11.0177 15.8785 10.9075 16.0437 10.9626C16.5946 11.0177 17.0904 11.1279 17.5862 11.3484C18.5778 11.8445 19.1287 12.6713 19.2939 13.7737C19.2939 13.8288 19.2939 13.8839 19.2939 13.939C19.2939 14.0493 19.2939 14.1595 19.2939 14.3249C19.2939 14.38 19.2939 14.4351 19.2939 14.4902C19.2389 14.7107 18.8532 14.7658 18.7982 14.4902C18.7982 14.4351 18.7431 14.3249 18.7431 14.2697C18.7431 13.7737 18.6329 13.2776 18.4125 12.8366C18.082 12.3406 17.6964 12.0099 17.2557 11.7894ZM20.2305 15.0965C20.0652 15.0965 19.955 14.9312 19.955 14.7658C19.955 14.4351 19.8999 14.1044 19.8448 13.7737C19.6245 12.0098 18.1922 10.5768 16.4844 10.3012C16.209 10.246 15.9336 10.246 15.7132 10.1909C15.5479 10.1909 15.3276 10.1909 15.2725 9.97044C15.2174 9.80508 15.3827 9.63972 15.5479 9.63972C15.603 9.63972 15.6581 9.63972 15.6581 9.63972C17.9167 9.69484 15.7683 9.63972 15.6581 9.63972C17.9718 9.69484 19.8999 11.2382 20.2855 13.5532C20.3406 13.939 20.3957 14.3249 20.3957 14.7658C20.5059 14.9312 20.3957 15.0965 20.2305 15.0965Z" fill="#393939"/>
</svg>
