<svg width="31" height="31" viewBox="0 0 31 31" fill="none" xmlns="http://www.w3.org/2000/svg">
<ellipse cx="15.0313" cy="15.145" rx="15.0313" ry="15.145" fill="white"/>
<path d="M22.4013 19.0186C22.4013 18.9557 22.3389 18.9557 22.3389 18.8928C22.0893 18.3899 21.5277 17.7612 20.7789 17.0696C20.4045 16.7553 20.2173 16.5038 20.0926 16.3781C19.9054 16.1266 19.9054 15.938 19.9678 15.6865C20.0302 15.4979 20.2797 15.1836 20.7165 14.6177C20.9661 14.3034 21.0909 14.1148 21.2781 13.9262C22.214 12.6688 22.6508 11.8515 22.526 11.4743L22.4637 11.4114C22.4013 11.3485 22.3388 11.2857 22.214 11.2857C22.0893 11.2228 21.9021 11.2228 21.7149 11.2857H19.3438C19.2814 11.2857 19.2814 11.2857 19.1566 11.2857C19.0942 11.2857 19.0318 11.2857 19.0318 11.2857H18.9694H18.907L18.8446 11.3485C18.7822 11.4114 18.7822 11.4114 18.7822 11.4743C18.5326 12.1658 18.2206 12.7317 17.9087 13.3603C17.7215 13.6747 17.5343 13.989 17.3471 14.2405C17.1599 14.492 17.0351 14.6806 16.9103 14.8063C16.7855 14.9321 16.6607 14.995 16.5983 15.1207C16.5359 15.1836 16.4111 15.2464 16.4111 15.1836C16.3487 15.1836 16.2863 15.1836 16.2863 15.1207C16.2239 15.0578 16.1615 14.9949 16.0991 14.9321C16.0367 14.8692 16.0367 14.7435 15.9743 14.6177C15.9743 14.492 15.9743 14.3663 15.9743 14.3034C15.9743 14.2405 15.9743 14.0519 15.9743 13.9262C15.9743 13.7376 15.9743 13.6118 15.9743 13.549C15.9743 13.3604 15.9743 13.1089 15.9743 12.8574C15.9743 12.6059 15.9743 12.4173 15.9743 12.2916C15.9743 12.1658 15.9743 11.9772 15.9743 11.8515C15.9743 11.6629 15.9743 11.5371 15.9743 11.4743C15.9743 11.4114 15.912 11.2857 15.912 11.2228C15.8496 11.1599 15.7872 11.0971 15.7248 11.0342C15.6624 10.9713 15.5376 10.9713 15.4752 10.9085C15.1632 10.8456 14.7888 10.7827 14.352 10.7827C13.3537 10.7827 12.6673 10.8456 12.4177 10.9713C12.2929 11.0342 12.1681 11.0971 12.1057 11.2228C11.9809 11.3485 11.9809 11.4114 12.0433 11.4114C12.3553 11.4743 12.6049 11.6 12.7297 11.7886L12.7921 11.9144C12.8545 11.9772 12.8545 12.103 12.9169 12.2916C12.9793 12.4802 12.9793 12.6688 12.9793 12.9203C12.9793 13.2975 12.9793 13.6747 12.9793 13.9262C12.9793 14.2405 12.9169 14.4291 12.9169 14.6177C12.9169 14.8063 12.8545 14.9321 12.7921 14.995C12.7297 15.1207 12.7297 15.1836 12.6673 15.1836C12.6673 15.1836 12.6673 15.2464 12.6049 15.2464C12.5425 15.2464 12.4801 15.3093 12.3553 15.3093C12.2929 15.3093 12.1681 15.2464 12.1057 15.1836C11.9809 15.1207 11.8561 14.995 11.7938 14.8692C11.669 14.7435 11.5442 14.5549 11.4194 14.3034C11.2946 14.0519 11.1074 13.8004 10.9826 13.4232L10.8578 13.1717C10.7954 13.046 10.6706 12.7945 10.5458 12.4802C10.421 12.1658 10.2962 11.9144 10.1714 11.6C10.109 11.4743 10.0466 11.4114 9.98424 11.3485H9.92184C9.92184 11.3485 9.85944 11.2857 9.79704 11.2857C9.73464 11.2857 9.67225 11.2228 9.60986 11.2228H7.36356C7.11397 11.2228 6.98918 11.2857 6.92678 11.3485L6.86438 11.4114C6.86438 11.4114 6.86438 11.4743 6.86438 11.5371C6.86438 11.6 6.86438 11.6629 6.92678 11.7886C7.23877 12.543 7.61315 13.2975 7.98753 14.0519C8.36191 14.7435 8.7363 15.3722 8.98589 15.8123C9.29787 16.2523 9.54745 16.6924 9.85944 17.0696C10.1714 17.4469 10.3586 17.6983 10.421 17.8241C10.5458 17.9498 10.6082 18.0127 10.6706 18.0755L10.8578 18.2642C10.9826 18.3899 11.1698 18.5785 11.4194 18.7671C11.669 18.9557 11.9809 19.1443 12.2929 19.3329C12.6049 19.5215 12.9793 19.6473 13.3537 19.773C13.7905 19.8988 14.1648 19.9616 14.5392 19.8988H15.4752C15.6624 19.8988 15.7872 19.8359 15.912 19.7101L15.9743 19.6473C15.9743 19.5844 16.0367 19.5844 16.0367 19.5215C16.0367 19.4587 16.0367 19.3958 16.0367 19.2701C16.0367 19.0186 16.0367 18.83 16.0991 18.6414C16.1615 18.4528 16.1615 18.327 16.2239 18.2013C16.2863 18.0756 16.3487 18.0127 16.4111 17.9498C16.4735 17.8869 16.5359 17.8241 16.5359 17.8241H16.5983C16.7231 17.7612 16.9103 17.8241 17.0351 17.9498C17.2223 18.0755 17.4095 18.2642 17.5343 18.4528C17.6591 18.6414 17.8463 18.83 18.0959 19.0815C18.3454 19.3329 18.5326 19.5215 18.6574 19.5844L18.8446 19.7101C18.9694 19.773 19.0942 19.8359 19.2814 19.8988C19.4686 19.9616 19.5934 19.9616 19.7182 19.9616L21.8397 19.8988C22.0269 19.8988 22.2141 19.8359 22.3389 19.773C22.4636 19.7102 22.526 19.6473 22.526 19.5215C22.526 19.4587 22.526 19.3329 22.526 19.2701C22.4012 19.1443 22.4013 19.0815 22.4013 19.0186Z" fill="#393939"/>
</svg>
