<svg width="50" height="50" viewBox="0 0 50 50" fill="none" xmlns="http://www.w3.org/2000/svg">
<path d="M25 3.125C20.6735 3.125 16.4442 4.40795 12.8469 6.8116C9.24959 9.21526 6.44581 12.6317 4.79014 16.6288C3.13448 20.6259 2.70128 25.0243 3.54533 29.2676C4.38938 33.5109 6.47277 37.4087 9.53205 40.468C12.5913 43.5272 16.4891 45.6106 20.7324 46.4547C24.9757 47.2987 29.3741 46.8655 33.3712 45.2099C37.3683 43.5542 40.7848 40.7504 43.1884 37.1531C45.5921 33.5558 46.875 29.3265 46.875 25C46.875 19.1984 44.5703 13.6344 40.468 9.53204C36.3656 5.42968 30.8016 3.125 25 3.125ZM25 10.9375C26.3907 10.9375 27.7501 11.3499 28.9064 12.1225C30.0626 12.8951 30.9639 13.9932 31.496 15.278C32.0282 16.5628 32.1675 17.9766 31.8962 19.3405C31.6249 20.7044 30.9552 21.9573 29.9719 22.9406C28.9885 23.9239 27.7357 24.5936 26.3717 24.8649C25.0078 25.1362 23.5941 24.997 22.3093 24.4648C21.0245 23.9326 19.9263 23.0314 19.1537 21.8751C18.3811 20.7188 17.9688 19.3594 17.9688 17.9688C17.9667 17.0448 18.1472 16.1296 18.4998 15.2756C18.8524 14.4216 19.3703 13.6456 20.0236 12.9923C20.6769 12.339 21.4528 11.8211 22.3068 11.4685C23.1608 11.1159 24.0761 10.9354 25 10.9375ZM37.5 38.9375C34.0735 42.0349 29.619 43.7498 25 43.7498C20.381 43.7498 15.9265 42.0349 12.5 38.9375V38.0312C12.4408 35.8919 13.2282 33.8155 14.691 32.2533C16.1537 30.691 18.1739 29.769 20.3125 29.6875H29.6875C31.8165 29.773 33.8271 30.6897 35.2877 32.2409C36.7484 33.7921 37.5426 35.8541 37.5 37.9844V38.9375Z" fill="#166BFF"/>
</svg>
