<svg width="17" height="16" viewBox="0 0 17 16" fill="none" xmlns="http://www.w3.org/2000/svg">
<g clip-path="url(#clip0)">
<path fill-rule="evenodd" clip-rule="evenodd" d="M8.01669 16C8.01669 16 14.0292 10.314 14.0292 6C14.0292 4.4087 13.3957 2.88258 12.2682 1.75736C11.1406 0.632141 9.61131 0 8.01669 0C6.42208 0 4.89277 0.632141 3.7652 1.75736C2.63764 2.88258 2.00418 4.4087 2.00418 6C2.00418 10.314 8.01669 16 8.01669 16ZM8.01669 9C8.814 9 9.57865 8.68393 10.1424 8.12132C10.7062 7.55871 11.0229 6.79565 11.0229 6C11.0229 5.20435 10.7062 4.44129 10.1424 3.87868C9.57865 3.31607 8.814 3 8.01669 3C7.21938 3 6.45473 3.31607 5.89095 3.87868C5.32717 4.44129 5.01044 5.20435 5.01044 6C5.01044 6.79565 5.32717 7.55871 5.89095 8.12132C6.45473 8.68393 7.21938 9 8.01669 9V9Z" fill="#EAEFF7"/>
</g>
<defs>
<clipPath id="clip0">
<rect width="16.0334" height="16" fill="white"/>
</clipPath>
</defs>
</svg>
