<svg width="98" height="37" viewBox="0 0 98 37" fill="none" xmlns="http://www.w3.org/2000/svg">
<path fill-rule="evenodd" clip-rule="evenodd" d="M27.4807 20.7869C27.4792 24.4358 27.1106 27.626 25.91 30.8992C25.7569 31.3168 24.9273 33.2685 24.7413 33.4804C24.4554 32.9729 24.1162 30.6422 23.0112 29.0339C22.3329 29.6734 21.651 31.6332 18.4655 33.8955C16.3539 35.3952 13.8625 36.1241 11.1797 36.1135C10.5856 36.111 9.0105 36.0597 8.5865 35.844C8.6249 35.8113 8.5962 35.8208 8.6895 35.7836C9.3135 35.5344 9.6138 35.6848 11.2385 34.8628C12.4449 34.2524 13.4798 33.4615 14.434 32.5801L14.9134 32.1359C15.0588 32.004 15.1934 31.849 15.3672 31.6678C18.3039 28.6062 21.1382 23.8328 21.1365 19.0562C21.1353 15.7272 19.2076 13.8708 16.2591 13.6851C14.9748 13.6043 15.1312 13.8959 14.4255 13.4482C13.8206 13.0645 12.3435 12.252 11.8981 11.9027C11.9463 11.4132 12.2673 10.9071 11.8668 10.3523C11.6262 10.019 11.0449 9.7047 10.5162 9.8042C9.6281 9.9712 9.0991 11.1409 8.8233 11.9717C8.4232 13.1773 8.6375 13.7979 7.7748 14.7847C7.2906 15.3386 6.2239 16.1386 5.3041 16.1592C6.0332 15.562 6.2324 15.723 7.0459 14.6911C7.5209 14.0886 7.9837 13.2231 7.9816 12.3065C7.9803 11.7015 7.6111 10.5944 7.1991 10.4892C6.6695 10.539 5.8137 11.5597 5.6286 12.1169C5.1738 13.4862 8.2187 14.2215 4.5919 15.8231C4.3488 15.9304 2.5601 16.6495 2.3922 16.8194C3.6479 16.8937 5.4269 16.6634 4.783 18.4855C4.4537 19.4173 3.6964 20.2106 2.8625 20.7188L2.6703 20.8446C2.753 21.0473 2.895 21.1387 3.0546 21.2976C3.4785 21.7195 3.8694 22.0657 4.4195 22.3574C6.4529 23.4355 9.1114 22.9269 11.1999 22.2973C11.5359 22.196 12.0872 21.9561 12.3611 21.9065C12.2202 22.5341 9.5711 23.4759 8.9407 23.6835C8.2537 23.9097 7.5522 24.057 6.7399 24.1598C6.1722 24.2317 5.5034 24.3025 4.8913 24.271C4.58 24.255 4.1298 24.1167 4.2121 24.5713C4.2599 24.835 4.5121 25.0105 4.7249 25.1087C5.8789 25.6414 9.5331 24.9026 10.8976 24.4852C11.1201 24.4172 11.3014 24.3187 11.4992 24.2779C11.3902 25.1633 7.5715 26.1154 7.0363 26.4405C7.0454 26.8766 9.1896 29.4016 9.8375 30.729C10.5146 32.1162 10.5637 33.4975 8.9822 34.2138C8.7317 34.3273 7.9039 34.6136 7.6146 34.6101C8.4113 34.0781 8.8965 33.6845 8.7425 32.4398C8.5646 31.0026 7.0902 30.0936 5.9387 31.1213C4.8431 32.099 6.1093 33.4888 5.7539 35.3098C4.8434 35.3599 2.7053 34.1853 2.6091 33.3633C2.7247 33.1731 3.0317 32.9785 3.2042 32.7693C3.4075 32.5227 3.511 32.3722 3.6785 32.0872C4.3144 31.0052 4.6261 29.8553 4.8793 28.6088C4.9505 28.2583 4.9561 27.9543 5.056 27.6493C5.1787 27.2749 5.1032 27.0484 5.0924 26.6854C5.0839 26.4016 5.1277 26.6214 4.9213 26.3534C4.5974 25.9328 4.5466 25.785 4.0165 25.5276C2.6693 24.8733 1.9893 25.0707 1.4508 23.3601C1.2428 22.6995 1.144 22.1385 1.0522 21.3842C0.947398 20.5234 0.720798 20.6364 0.366798 19.7711C0.155498 19.2547 -0.0943005 18.3926 0.0360995 17.7372C0.2778 16.5226 3.8006 16.0481 4.7471 15.3898C5.1737 15.093 4.7922 13.9271 4.6752 13.5029C4.4578 12.7149 4.7196 12.2487 4.9943 11.5981C5.2425 11.0103 5.5514 10.5455 5.9753 10.2239C5.7972 8.7142 5.9359 6.7712 6.2279 5.3501C6.4415 4.3107 6.9165 1.9598 7.8961 1.7382C7.9562 3.2474 9.4041 5.4707 10.5811 6.4508C10.8221 6.6514 11.044 6.4494 11.4654 6.4196C11.8832 6.39 12.319 6.3908 12.7375 6.4083C13.0987 6.4234 13.4814 6.5871 13.7932 6.3777C14.5125 5.8946 14.9991 4.9691 15.3318 4.1738C15.93 2.7443 16.2091 1.799 16.034 0.0171011C17.7126 -0.237999 19.6195 2.4361 20.3344 3.7307C20.8513 4.6666 21.1775 5.5327 21.5128 6.59C21.6625 7.0619 21.8262 7.7186 21.8983 8.2123C22.2062 10.3216 22.0469 8.89 23.6263 10.4715C24.6568 11.5034 25.5051 12.683 26.1298 14.032C27.027 15.9693 27.4819 18.3136 27.4807 20.7869V20.7869ZM18.7371 9.9032C18.6019 9.8574 18.6711 9.8804 18.5775 9.8104C18.5172 9.7653 18.5386 9.7698 18.4534 9.7021L17.4931 9.1638C17.0823 8.9733 16.516 8.745 16.0282 8.666C16.2245 7.2338 15.6402 6.95 15.4894 6.4798C15.5 6.4693 15.5172 6.4389 15.5224 6.4492C15.553 6.51 16.0195 5.905 16.1693 5.587C16.4958 4.8938 16.7523 3.881 16.9373 3.1131C17.0904 2.478 17.1706 2.0354 17.2949 1.8754C18.9194 3.3439 20.0876 9.0141 18.7371 9.9032V9.9032ZM14.4543 13.9795C13.9019 14.5691 11.4904 15.1099 10.5422 15.5937C10.0087 15.8659 9.8277 16.1169 9.9508 16.7949C9.6673 16.706 9.1314 15.8475 9.006 15.5756C8.7257 14.9674 8.6881 14.4002 8.957 13.7784C9.6567 14.3149 10.3999 12.4416 11.6959 12.4948C12.5684 12.5306 13.1833 13.1611 13.736 13.615C14.07 13.8893 14.168 13.8159 14.4543 13.9795ZM8.9042 6.5985C8.5364 7.101 8.2474 7.5682 7.8093 8.0713C7.629 8.2784 6.7865 9.3237 6.5329 9.3552C6.5345 7.8391 6.748 5.1207 7.2799 3.6733C7.3664 3.438 7.4276 3.1886 7.6025 3.0703C7.6406 3.8348 7.7523 4.4639 8.0122 5.0891C8.1382 5.3922 8.2632 5.6399 8.4167 5.8949C8.5474 6.1119 8.8278 6.435 8.9042 6.5985V6.5985ZM34.5445 17.6137H34.948C34.9483 17.8681 34.9114 17.8905 34.8903 18.0752C34.4992 18.0752 34.0595 18.1209 34.0804 17.5121C34.0853 17.3717 34.111 17.3759 34.1406 17.2102L34.5445 17.2098V17.6137V17.6137ZM36.6188 26.1825H38.9974C38.9974 25.6206 38.9974 25.2367 38.9974 24.6841C37.6583 24.6841 36.2535 24.6841 34.9144 24.6841V31.2395C35.4856 31.2395 36.0569 31.2395 36.6188 31.2395V26.1825V26.1825ZM41.8444 31.2395V29.5632H43.0524C46.1896 29.5632 46.1896 24.6935 43.0524 24.6841C42.0879 24.6841 41.1139 24.6841 40.1681 24.6841C40.1681 26.8755 40.1681 29.0575 40.1681 31.2395C40.7206 31.2395 41.2825 31.2395 41.8444 31.2395ZM43.0431 28.0555H41.8444C41.8444 27.5217 41.8444 26.7163 41.8444 26.1825C42.2283 26.1825 42.6497 26.1731 43.0431 26.1825C44.017 26.1919 43.9608 28.0555 43.0431 28.0555ZM47.07 31.2395H48.8774L51.9865 24.937V24.6841H50.1697L49.0459 27.1003H48.9991L47.7629 24.6841H45.89V24.937L48.1001 28.9451L47.07 31.0616V31.2395V31.2395ZM54.1404 26.3417C54.1404 26.0982 54.3558 25.9578 54.721 25.9578C55.5076 25.9578 55.5264 27.0909 54.7023 27.0909H54.2621V28.4582H54.721C55.8448 28.4582 55.8448 29.9472 54.721 29.9472C54.234 29.9472 53.8969 29.6194 53.8969 29.1043H52.4266C52.4266 30.5746 53.2976 31.3612 54.721 31.3612C56.4067 31.3612 57.2495 30.4622 57.2495 29.301C57.2495 28.5612 56.9686 28.0367 56.3037 27.6809C56.6876 27.3906 56.8749 26.8958 56.8749 26.4681C56.8749 25.5176 56.1538 24.5718 54.721 24.5718C53.5785 24.5718 52.5952 25.1337 52.6514 26.3417H54.1404V26.3417ZM64.8163 27.9712C64.8163 23.4386 58.0924 23.4386 58.0924 27.9712C58.0924 32.5131 64.8163 32.5131 64.8163 27.9712ZM59.8155 27.9712C59.8155 25.6113 63.1025 25.6113 63.1025 27.9712C63.1025 30.3498 59.8155 30.3498 59.8155 27.9712ZM67.0451 26.1825V31.2395C67.5977 31.2395 68.1502 31.2395 68.7027 31.2395V26.1825H70.3041C70.3041 25.6768 70.3041 25.1805 70.3041 24.6841H65.4344C65.4344 25.1805 65.4344 25.6768 65.4344 26.1825H67.0451ZM75.127 31.2395H76.7658V30.996L73.8066 24.5999H73.0855L70.1356 30.996V31.2395H71.7744L72.1584 30.4154H74.743L75.127 31.2395V31.2395ZM74.1999 28.9826H72.7015L73.4413 27.2595L74.1999 28.9826ZM79.3411 31.2395V28.7391C79.5565 28.7391 79.7625 28.7391 79.9873 28.7016L81.4295 31.2395H83.2931V30.9773L81.5138 28.0929C82.8155 27.2595 82.778 26.0233 82.778 24.6841C82.1974 24.6841 81.6261 24.6841 81.0549 24.6841C81.0549 25.9109 81.1392 27.1658 79.4629 27.1658H79.3411V24.6841C78.7605 24.6841 78.1986 24.6841 77.6367 24.6841V31.2395C78.1986 31.2395 78.7605 31.2395 79.3411 31.2395V31.2395ZM83.8643 27.9618C83.8737 30.1906 85.5594 31.3144 87.2263 31.3051C88.6217 31.3051 90.0919 30.5746 90.3354 28.7204C89.7642 28.7204 89.2491 28.7204 88.6872 28.7204C88.5093 29.4227 87.938 29.7786 87.2263 29.7786C86.2336 29.7692 85.5968 28.9264 85.5968 27.9618C85.5968 26.8755 86.243 26.1357 87.2263 26.1357C87.9287 26.1357 88.425 26.4354 88.6591 27.1003C89.2304 27.1003 89.7361 27.1003 90.3073 27.1003C90.0545 25.349 88.5842 24.6092 87.2263 24.6092C85.5594 24.6092 83.8737 25.733 83.8643 27.9618V27.9618ZM95.5329 28.018V31.2395C96.1135 31.2395 96.6941 31.2395 97.2653 31.2395V24.656H96.6566L93.3415 27.8916V24.6841C92.7702 24.6841 92.199 24.6841 91.6277 24.6841V31.2395H92.2271L95.5329 28.018ZM39.9335 17.5542L42.1531 21.3692H45.4999V20.901L41.5635 14.9357L45.0664 9.6988V9.2306H41.8583L39.9161 12.3866H39.8294L37.9046 9.2306H34.6792V9.6988L38.182 14.9357L34.263 20.901V21.3692H37.6098L39.8294 17.5542H39.9335ZM55.7136 21.3692H58.7483V20.9183L53.2686 9.0745H51.9333L46.4709 20.9183V21.3692H49.5056L50.2166 19.8432H55.0027L55.7136 21.3692V21.3692ZM53.9969 17.19H51.2223L52.5923 13.9993L53.9969 17.19V17.19ZM59.6153 15.2999C59.6327 19.427 62.754 21.5079 65.8407 21.4906C68.4245 21.4906 71.147 20.138 71.5979 16.7045C70.5401 16.7045 69.5863 16.7045 68.5459 16.7045C68.2164 18.0051 67.1586 18.664 65.8407 18.664C64.0026 18.6467 62.8234 17.086 62.8234 15.2999C62.8234 13.2883 64.0199 11.9184 65.8407 11.9184C67.1413 11.9184 68.0603 12.4733 68.4939 13.7045C69.5517 13.7045 70.4881 13.7045 71.5459 13.7045C71.0777 10.4618 68.3551 9.0918 65.8407 9.0918C62.754 9.0918 59.6327 11.1728 59.6153 15.2999V15.2999ZM77.1469 21.3692V16.7392C77.5458 16.7392 77.9273 16.7392 78.3434 16.6698L81.0139 21.3692H84.4648V20.8837L81.17 15.5427C83.5804 13.9993 83.511 11.7103 83.511 9.2306C82.4359 9.2306 81.3781 9.2306 80.3203 9.2306C80.3203 11.5022 80.4764 13.8259 77.3724 13.8259H77.1469V9.2306C76.0718 9.2306 75.0313 9.2306 73.9909 9.2306V21.3692C75.0313 21.3692 76.0718 21.3692 77.1469 21.3692V21.3692ZM93.4994 15.4039V21.3692C94.5746 21.3692 95.6497 21.3692 96.7075 21.3692V9.1785H95.5803L89.4417 15.1698V9.2306C88.3839 9.2306 87.3261 9.2306 86.2683 9.2306V21.3692H87.3781L93.4994 15.4039V15.4039Z" fill="#1A1A1A"/>
</svg>
