<svg width="55" height="51" viewBox="0 0 55 51" fill="none" xmlns="http://www.w3.org/2000/svg">
<path d="M36.1752 36.0492V40.2562H4.6283V36.0492C4.6283 36.0492 4.6283 27.6353 20.4018 27.6353C36.1752 27.6353 36.1752 36.0492 36.1752 36.0492ZM28.2885 16.0662C28.2885 14.6101 27.826 13.1867 26.9593 11.976C26.0927 10.7653 24.861 9.82164 23.4199 9.26441C21.9788 8.70719 20.393 8.56139 18.8631 8.84546C17.3333 9.12953 15.928 9.83071 14.825 10.8603C13.722 11.8899 12.9709 13.2018 12.6666 14.6299C12.3623 16.058 12.5184 17.5383 13.1154 18.8835C13.7123 20.2288 14.7232 21.3786 16.0201 22.1876C17.3171 22.9966 18.8419 23.4283 20.4018 23.4283C22.4935 23.4283 24.4995 22.6527 25.9785 21.272C27.4576 19.8913 28.2885 18.0187 28.2885 16.0662ZM36.04 27.6353C37.4253 28.636 38.5588 29.908 39.3607 31.3616C40.1627 32.8153 40.6137 34.4153 40.6819 36.0492V40.2562H49.6954V36.0492C49.6954 36.0492 49.6953 28.4136 36.04 27.6353ZM33.9219 8.704C32.3709 8.69594 30.854 9.12881 29.5729 9.94505C30.9417 11.7303 31.6777 13.8707 31.6777 16.0662C31.6777 18.2616 30.9417 20.402 29.5729 22.1873C30.854 23.0035 32.3709 23.4364 33.9219 23.4283C36.0136 23.4283 38.0196 22.6527 39.4986 21.272C40.9777 19.8913 41.8086 18.0187 41.8086 16.0662C41.8086 14.1136 40.9777 12.241 39.4986 10.8603C38.0196 9.47965 36.0136 8.704 33.9219 8.704Z" fill="#166BFF"/>
</svg>
