<svg width="24" height="24" viewBox="0 0 24 24" fill="none" xmlns="http://www.w3.org/2000/svg">
<path d="M20.487 16.8016L16.422 13.1867C16.2298 13.0159 15.9773 12.9248 15.7178 12.9327C15.4583 12.9405 15.212 13.0467 15.031 13.2288L12.638 15.6358C12.062 15.5282 10.904 15.1751 9.712 14.0122C8.52 12.8454 8.159 11.7099 8.052 11.1504L10.511 8.80894C10.6974 8.63204 10.8061 8.39114 10.8142 8.13722C10.8222 7.8833 10.7289 7.63629 10.554 7.44846L6.859 3.47364C6.68404 3.28522 6.44088 3.17093 6.18115 3.15505C5.92143 3.13916 5.6656 3.22292 5.468 3.38855L3.298 5.20871C3.12511 5.37842 3.02192 5.60429 3.008 5.84347C2.993 6.08799 2.707 11.88 7.299 16.3732C11.305 20.2904 16.323 20.5769 17.705 20.5769C17.907 20.5769 18.031 20.5711 18.064 20.5691C18.3085 20.5557 18.5393 20.4543 18.712 20.2845L20.572 18.1611C20.742 17.9685 20.8283 17.7185 20.8124 17.4645C20.7965 17.2104 20.6797 16.9726 20.487 16.8016Z" fill="#325FFF"/>
</svg>
