<svg width="30" height="30" viewBox="0 0 30 30" fill="none" xmlns="http://www.w3.org/2000/svg">
<ellipse cx="15" cy="14.8183" rx="15" ry="14.6709" fill="#325FFF"/>
<path d="M19.6904 7.88333C16.8318 7.3494 13.8632 7.3494 11.0046 7.88333C9.74018 8.1503 8.14594 9.64532 7.87107 10.82C7.37631 13.1159 7.37631 15.4652 7.87107 17.7611C8.20092 18.9358 9.79516 20.4308 11.0046 20.6978C11.0596 20.6978 11.1145 20.7512 11.1145 20.8046V24.1683C11.1145 24.3285 11.3344 24.4353 11.4444 24.2751L13.0936 22.6199C13.0936 22.6199 14.413 21.2851 14.6329 21.0715C14.6329 21.0715 14.6878 21.0181 14.7428 21.0181C16.392 21.0715 18.0962 20.9113 19.7454 20.6444C21.0098 20.3774 22.6041 18.8824 22.8789 17.7077C23.3737 15.4118 23.3737 13.0625 22.8789 10.7666C22.5491 9.64532 20.9548 8.1503 19.6904 7.88333ZM19.7454 17.9213C19.4705 18.4552 19.1407 18.8824 18.591 19.1494C18.426 19.2028 18.2611 19.2561 18.0962 19.3095C17.8763 19.2561 17.7114 19.2028 17.5465 19.1494C15.7873 18.4552 14.1381 17.4942 12.8187 16.1059C12.1041 15.305 11.4993 14.3973 11.0046 13.4363C10.7847 12.9557 10.5648 12.5286 10.3999 12.048C10.2349 11.6209 10.5098 11.1937 10.7847 10.8734C11.0596 10.553 11.3894 10.3394 11.7742 10.1793C12.0491 10.0191 12.324 10.1259 12.5438 10.3394C12.9836 10.8734 13.4234 11.4073 13.7533 11.9946C13.9732 12.3684 13.9182 12.7955 13.5334 13.0625C13.4234 13.1159 13.3685 13.1693 13.2585 13.2761C13.2035 13.3295 13.0936 13.3829 13.0386 13.4896C12.9287 13.6498 12.9287 13.81 12.9836 13.9702C13.4234 15.1982 14.248 16.1593 15.5124 16.6933C15.7323 16.8 15.8973 16.8534 16.1721 16.8534C16.5569 16.8 16.7219 16.3729 16.9967 16.1593C17.2716 15.9457 17.6014 15.9457 17.9313 16.1059C18.2062 16.2661 18.481 16.4797 18.8109 16.6933C19.0857 16.9068 19.3606 17.067 19.6355 17.2806C19.8004 17.3874 19.8554 17.6543 19.7454 17.9213ZM17.4365 13.9168C17.3266 13.9168 17.3815 13.9168 17.4365 13.9168C17.2166 13.9168 17.1616 13.81 17.1067 13.6498C17.1067 13.543 17.1067 13.3829 17.0517 13.2761C16.9967 13.0625 16.8868 12.8489 16.6669 12.6887C16.5569 12.6354 16.447 12.582 16.337 12.5286C16.1721 12.4752 16.0622 12.4752 15.8973 12.4752C15.7323 12.4218 15.6774 12.315 15.6774 12.1548C15.6774 12.048 15.8423 11.9412 15.9522 11.9412C16.8318 11.9946 17.4915 12.4752 17.6014 13.4896C17.6014 13.543 17.6014 13.6498 17.6014 13.7032C17.6014 13.81 17.5465 13.9168 17.4365 13.9168ZM16.8868 11.5675C16.6119 11.4607 16.337 11.3539 16.0072 11.3005C15.8973 11.3005 15.7323 11.2471 15.6224 11.2471C15.4575 11.2471 15.3475 11.1403 15.4025 10.9802C15.4025 10.82 15.5124 10.7132 15.6774 10.7666C16.2271 10.82 16.7219 10.9268 17.2166 11.1403C18.2062 11.6209 18.7559 12.4218 18.9208 13.4896C18.9208 13.543 18.9208 13.5964 18.9208 13.6498C18.9208 13.7566 18.9208 13.8634 18.9208 14.0236C18.9208 14.077 18.9208 14.1304 18.9208 14.1838C18.8658 14.3973 18.481 14.4507 18.426 14.1838C18.426 14.1304 18.3711 14.0236 18.3711 13.9702C18.3711 13.4896 18.2611 13.0091 18.0412 12.582C17.7114 12.1014 17.3266 11.7811 16.8868 11.5675ZM19.8554 14.7711C19.6904 14.7711 19.5805 14.6109 19.5805 14.4507C19.5805 14.1304 19.5255 13.81 19.4705 13.4896C19.2507 11.7811 17.8213 10.3928 16.1171 10.1259C15.8423 10.0725 15.5674 10.0725 15.3475 10.0191C15.1826 10.0191 14.9627 10.0191 14.9077 9.8055C14.8527 9.64532 15.0177 9.48514 15.1826 9.48514C15.2376 9.48514 15.2925 9.48514 15.2925 9.48514C17.5465 9.53853 15.4025 9.48514 15.2925 9.48514C17.6014 9.53853 19.5255 11.0335 19.9103 13.2761C19.9653 13.6498 20.0203 14.0236 20.0203 14.4507C20.1302 14.6109 20.0203 14.7711 19.8554 14.7711Z" fill="white"/>
</svg>
