<svg width="30" height="30" viewBox="0 0 30 30" fill="none" xmlns="http://www.w3.org/2000/svg">
<ellipse cx="15" cy="14.8183" rx="15" ry="14.6709" fill="#166BFF"/>
<path d="M22.3546 18.5706C22.3546 18.5097 22.2924 18.5097 22.2924 18.4488C22.0433 17.9616 21.4829 17.3526 20.7357 16.6827C20.3621 16.3782 20.1753 16.1346 20.0507 16.0128C19.8639 15.7692 19.864 15.5865 19.9262 15.3429C19.9885 15.1602 20.2375 14.8557 20.6734 14.3076C20.9225 14.0031 21.047 13.8204 21.2338 13.6377C22.1678 12.4196 22.6037 11.6279 22.4792 11.2625L22.4169 11.2016C22.3546 11.1407 22.2924 11.0798 22.1678 11.0798C22.0433 11.0189 21.8565 11.0189 21.6697 11.0798H19.3035C19.2413 11.0798 19.2413 11.0798 19.1167 11.0798C19.0545 11.0798 18.9922 11.0798 18.9922 11.0798H18.9299H18.8677L18.8054 11.1407C18.7431 11.2016 18.7431 11.2016 18.7431 11.2625C18.4941 11.9324 18.1827 12.4805 17.8714 13.0896C17.6846 13.3941 17.4978 13.6986 17.311 13.9422C17.1242 14.1858 16.9996 14.3685 16.8751 14.4903C16.7506 14.6121 16.626 14.673 16.5638 14.7948C16.5015 14.8557 16.377 14.9166 16.377 14.8557C16.3147 14.8557 16.2524 14.8557 16.2524 14.7948C16.1902 14.7339 16.1279 14.673 16.0656 14.6121C16.0034 14.5512 16.0034 14.4294 15.9411 14.3076C15.9411 14.1858 15.9411 14.064 15.9411 14.0031C15.9411 13.9422 15.9411 13.7595 15.9411 13.6377C15.9411 13.455 15.9411 13.3332 15.9411 13.2723C15.9411 13.0896 15.9411 12.846 15.9411 12.6024C15.9411 12.3587 15.9411 12.176 15.9411 12.0542C15.9411 11.9324 15.9411 11.7497 15.9411 11.6279C15.9411 11.4452 15.9411 11.3234 15.9411 11.2625C15.9411 11.2016 15.8789 11.0798 15.8789 11.0189C15.8166 10.958 15.7543 10.8971 15.692 10.8362C15.6298 10.7753 15.5052 10.7753 15.443 10.7144C15.1316 10.6535 14.758 10.5926 14.3222 10.5926C13.3259 10.5926 12.641 10.6535 12.3919 10.7753C12.2673 10.8362 12.1428 10.8971 12.0805 11.0189C11.956 11.1407 11.956 11.2016 12.0183 11.2016C12.3296 11.2625 12.5787 11.3843 12.7032 11.567L12.7655 11.6888C12.8278 11.7497 12.8277 11.8715 12.89 12.0542C12.9523 12.2369 12.9523 12.4196 12.9523 12.6632C12.9523 13.0287 12.9523 13.3941 12.9523 13.6377C12.9523 13.9422 12.89 14.1249 12.89 14.3076C12.89 14.4903 12.8278 14.6121 12.7655 14.673C12.7032 14.7948 12.7032 14.8557 12.6409 14.8557C12.6409 14.8557 12.6409 14.9166 12.5787 14.9166C12.5164 14.9166 12.4541 14.9775 12.3296 14.9775C12.2673 14.9775 12.1428 14.9166 12.0805 14.8557C11.956 14.7948 11.8315 14.673 11.7692 14.5512C11.6447 14.4294 11.5201 14.2467 11.3956 14.0031C11.2711 13.7595 11.0843 13.5159 10.9597 13.1505L10.8352 12.9069C10.7729 12.7851 10.6484 12.5414 10.5239 12.2369C10.3993 11.9324 10.2748 11.6888 10.1503 11.3843C10.088 11.2625 10.0257 11.2016 9.96347 11.1407H9.9012C9.9012 11.1407 9.83892 11.0798 9.77665 11.0798C9.71439 11.0798 9.65213 11.0189 9.58986 11.0189H7.34824C7.09917 11.0189 6.97464 11.0798 6.91237 11.1407L6.8501 11.2016C6.8501 11.2016 6.8501 11.2625 6.8501 11.3234C6.8501 11.3843 6.8501 11.4452 6.91237 11.567C7.2237 12.2978 7.59731 13.0287 7.97091 13.7595C8.34451 14.4294 8.71812 15.0384 8.96719 15.4647C9.27852 15.891 9.52759 16.3173 9.83892 16.6827C10.1503 17.0481 10.3371 17.2917 10.3993 17.4135C10.5239 17.5353 10.5861 17.5962 10.6484 17.6571L10.8352 17.8398C10.9597 17.9616 11.1465 18.1443 11.3956 18.327C11.6447 18.5097 11.956 18.6924 12.2673 18.8751C12.5787 19.0578 12.9523 19.1796 13.3259 19.3015C13.7618 19.4233 14.1354 19.4842 14.509 19.4233H15.443C15.6298 19.4233 15.7543 19.3623 15.8789 19.2405L15.9411 19.1796C15.9411 19.1187 16.0034 19.1187 16.0034 19.0578C16.0034 18.9969 16.0034 18.936 16.0034 18.8142C16.0034 18.5706 16.0034 18.3879 16.0656 18.2052C16.1279 18.0225 16.1279 17.9007 16.1902 17.7789C16.2525 17.6571 16.3147 17.5962 16.377 17.5353C16.4392 17.4744 16.5015 17.4135 16.5015 17.4135H16.5638C16.6883 17.3526 16.8751 17.4135 16.9997 17.5353C17.1865 17.6571 17.3732 17.8398 17.4978 18.0225C17.6223 18.2052 17.8091 18.3879 18.0582 18.6315C18.3073 18.8751 18.4941 19.0578 18.6186 19.1187L18.8054 19.2405C18.9299 19.3014 19.0545 19.3623 19.2413 19.4233C19.4281 19.4842 19.5526 19.4841 19.6771 19.4841L21.7942 19.4233C21.981 19.4233 22.1678 19.3624 22.2924 19.3015C22.4169 19.2406 22.4792 19.1796 22.4792 19.0578C22.4792 18.9969 22.4792 18.8751 22.4792 18.8142C22.3546 18.6924 22.3546 18.6315 22.3546 18.5706Z" fill="white"/>
</svg>
