<svg width="30" height="30" viewBox="0 0 30 30" fill="none" xmlns="http://www.w3.org/2000/svg">
<ellipse cx="15" cy="14.8183" rx="15" ry="14.6709" fill="#325FFF"/>
<path d="M20.9451 8.99583C19.4634 7.55167 17.4878 6.74936 15.4024 6.74936C11.0671 6.74936 7.55488 10.1726 7.55488 14.3981C7.55488 15.7353 7.93902 17.0724 8.59756 18.1957L7.5 22.1538L11.6707 21.084C12.8232 21.6724 14.0854 21.9933 15.4024 21.9933C19.7378 21.9933 23.25 18.5701 23.25 14.3446C23.1951 12.3655 22.4268 10.44 20.9451 8.99583ZM19.189 17.1259C19.0244 17.5538 18.2561 17.9817 17.872 18.0352C17.5427 18.0887 17.1037 18.0887 16.6646 17.9817C16.3902 17.8748 16.0061 17.7678 15.5671 17.5538C13.5915 16.7515 12.3293 14.826 12.2195 14.6655C12.1098 14.5585 11.3963 13.6492 11.3963 12.6865C11.3963 11.7237 11.8902 11.2958 12.0549 11.0818C12.2195 10.8679 12.439 10.8679 12.6037 10.8679C12.7134 10.8679 12.878 10.8679 12.9878 10.8679C13.0976 10.8679 13.2622 10.8144 13.4268 11.1888C13.5915 11.5632 13.9756 12.526 14.0305 12.5795C14.0854 12.6865 14.0854 12.7934 14.0305 12.9004C13.9756 13.0074 13.9207 13.1144 13.811 13.2213C13.7012 13.3283 13.5915 13.4888 13.5366 13.5423C13.4268 13.6492 13.3171 13.7562 13.4268 13.9167C13.5366 14.1306 13.9207 14.719 14.5244 15.2539C15.2927 15.8957 15.8963 16.1097 16.1159 16.2167C16.3354 16.3236 16.4451 16.2701 16.5549 16.1632C16.6646 16.0562 17.0488 15.6283 17.1585 15.4143C17.2683 15.2004 17.4329 15.2539 17.5976 15.3074C17.7622 15.3608 18.75 15.8422 18.9146 15.9492C19.1341 16.0562 19.2439 16.1097 19.2988 16.1632C19.3537 16.3236 19.3537 16.698 19.189 17.1259Z" fill="white"/>
</svg>
