<svg width="31" height="31" viewBox="0 0 31 31" fill="none" xmlns="http://www.w3.org/2000/svg">
<ellipse cx="15.2815" cy="15.145" rx="15.0313" ry="15.145" fill="white"/>
<path d="M21.239 9.13451C19.7542 7.64367 17.7745 6.81543 15.6848 6.81543C11.3404 6.81543 7.82086 10.3493 7.82086 14.7114C7.82086 16.0918 8.20581 17.4722 8.86572 18.6317L7.76587 22.7177L11.9453 21.6134C13.1001 22.2208 14.365 22.5521 15.6848 22.5521C20.0292 22.5521 23.5487 19.0182 23.5487 14.6561C23.4937 12.6131 22.7238 10.6254 21.239 9.13451ZM19.4793 17.5274C19.3143 17.9691 18.5444 18.4108 18.1594 18.4661C17.8295 18.5213 17.3896 18.5213 16.9496 18.4108C16.6747 18.3004 16.2897 18.19 15.8498 17.9691C13.87 17.1409 12.6052 15.1531 12.4952 14.9874C12.3852 14.877 11.6703 13.9383 11.6703 12.9444C11.6703 11.9505 12.1653 11.5088 12.3302 11.2879C12.4952 11.0671 12.7152 11.0671 12.8802 11.0671C12.9902 11.0671 13.1551 11.0671 13.2651 11.0671C13.3751 11.0671 13.5401 11.0119 13.7051 11.3984C13.87 11.7849 14.255 12.7788 14.31 12.834C14.365 12.9444 14.365 13.0549 14.31 13.1653C14.255 13.2757 14.2 13.3862 14.09 13.4966C13.98 13.607 13.87 13.7727 13.815 13.8279C13.7051 13.9383 13.5951 14.0488 13.7051 14.2144C13.815 14.4353 14.2 15.0427 14.8049 15.5948C15.5748 16.2574 16.1797 16.4783 16.3997 16.5887C16.6197 16.6991 16.7296 16.6439 16.8396 16.5335C16.9496 16.4231 17.3346 15.9813 17.4445 15.7605C17.5545 15.5396 17.7195 15.5948 17.8845 15.65C18.0495 15.7053 19.0393 16.2022 19.2043 16.3126C19.4243 16.4231 19.5343 16.4783 19.5893 16.5335C19.6442 16.6991 19.6442 17.0857 19.4793 17.5274Z" fill="#393939"/>
</svg>
